# xmcd
#
# Track frame offsets:
#	150
#	18051
#	41014
#	64342
#	81349
#	101148
#	119273
#	139702
#	157711
#	175249
#	195678
#	215977
#	231505
#	249341
#	268970
#	281071
#	296895
#
# Disc length: 4189 seconds
#
# Revision: 1
# Processed by: cddbd v1.5.1PL2 Copyright (c) Steve Scherf et al.
# Submitted via: audiograbber 1.83.01
#
DISCID=08105b11
DTITLE=Joe Cocker - MTV Hitory Hits 2002
DYEAR=2002
DGENRE=
TTITLE0=You Can't Have My Heart
TTITLE1=Unchain My Heart
TTITLE2=With A Little Help From My Friends
TTITLE3=You Can Leave Your Hat On
TTITLE4=You Took It So Hard
TTITLE5=Never Tear Us Apart
TTITLE6=Now That Magic Has Gone
TTITLE7=Love Not War
TTITLE8=Summer In The City
TTITLE9=Could You Be Loved
TTITLE10=This Is Your Life
TTITLE11=Night Calls
TTITLE12=When The Night Comes
TTITLE13=Shelter Me
TTITLE14=You Are So Beautiful
TTITLE15=Every Time It Rains
TTITLE16=Up Where We Belong
EXTD=
EXTT0=
EXTT1=
EXTT2=
EXTT3=
EXTT4=
EXTT5=
EXTT6=
EXTT7=
EXTT8=
EXTT9=
EXTT10=
EXTT11=
EXTT12=
EXTT13=
EXTT14=
EXTT15=
EXTT16=
PLAYORDER=
